<?xml version="1.0" standalone="no"?>
<!DOCTYPE svg PUBLIC "-//W3C//DTD SVG 20010904//EN"
 "http://www.w3.org/TR/2001/REC-SVG-20010904/DTD/svg10.dtd">
<svg version="1.0" xmlns="http://www.w3.org/2000/svg"
 width="260.000000pt" height="260.000000pt" viewBox="0 0 260.000000 260.000000"
 preserveAspectRatio="xMidYMid meet">
<metadata>
Created by potrace 1.14, written by Peter Selinger 2001-2017
</metadata>
<g transform="translate(0.000000,260.000000) scale(0.100000,-0.100000)"
fill="#000000" stroke="none">
<path d="M0 1300 l0 -1300 1300 0 1300 0 0 1300 0 1300 -1300 0 -1300 0 0
-1300z m1808 650 c2 -368 -1 -501 -9 -517 -12 -22 -18 -23 -135 -23 l-123 0
-41 -53 c-22 -30 -40 -61 -40 -70 0 -9 14 -27 30 -39 20 -14 30 -30 28 -43 -3
-19 -10 -20 -143 -20 -136 0 -140 1 -143 22 -2 14 4 26 17 33 50 26 48 57 -11
133 l-30 37 -123 0 c-113 0 -125 2 -135 19 -11 22 -15 1003 -3 1014 3 4 198 6
432 5 l426 -3 3 -495z m14 -917 c27 -24 32 -79 11 -122 -18 -36 -18 -39 -1
-77 24 -54 23 -76 -3 -72 -15 2 -27 18 -41 56 -11 28 -23 52 -28 52 -5 0 -10
-24 -12 -52 -3 -45 -6 -53 -23 -53 -19 0 -20 8 -23 142 -3 140 -2 142 20 146
33 6 80 -3 100 -20z m-858 -35 c8 -29 18 -66 22 -82 8 -35 15 -24 39 67 15 57
21 67 40 67 21 0 22 -6 28 -97 12 -169 10 -193 -13 -193 -18 0 -20 7 -20 74 0
41 -4 77 -8 80 -5 3 -16 -22 -26 -54 -21 -76 -39 -78 -60 -6 -9 30 -17 60 -17
68 -3 30 -17 -51 -18 -104 -1 -43 -5 -58 -15 -58 -25 0 -27 16 -20 155 7 132
7 135 30 135 19 0 25 -9 38 -52z m304 -65 c41 -156 42 -168 17 -168 -13 0 -22
10 -29 33 -8 30 -12 33 -45 30 -31 -3 -36 -7 -39 -31 -4 -29 -27 -46 -42 -31
-6 6 4 63 25 144 19 73 35 135 35 137 0 2 11 3 24 3 22 0 26 -9 54 -117z m111
65 c9 -26 19 -49 22 -52 3 -3 13 19 23 49 14 47 21 55 41 55 l25 0 -32 -82
c-19 -50 -33 -108 -36 -145 -3 -54 -6 -63 -23 -63 -16 0 -19 7 -19 53 0 34
-11 83 -30 135 -36 98 -36 104 -8 100 15 -2 26 -16 37 -50z m171 -44 c0 -102
9 -134 39 -134 27 0 31 19 31 131 0 92 1 99 20 99 19 0 20 -7 20 -119 0 -105
-2 -121 -21 -145 -31 -40 -83 -37 -109 7 -17 27 -20 50 -20 145 0 105 1 112
20 112 19 0 20 -7 20 -96z m-556 -280 c9 -3 16 -17 16 -30 0 -21 -4 -24 -32
-22 -27 3 -34 -1 -36 -18 -2 -16 7 -28 31 -43 41 -25 47 -38 47 -94 0 -53 -22
-77 -70 -77 -43 0 -62 17 -53 48 4 18 9 20 24 11 27 -14 59 -2 59 22 0 11 -15
28 -35 41 -92 60 -50 200 49 162z m104 -52 l3 -52 35 0 34 0 0 56 c0 47 3 55
18 52 15 -3 17 -18 17 -143 0 -125 -2 -140 -17 -143 -16 -3 -18 5 -18 57 l0
61 -35 0 -34 0 -3 -57 c-2 -46 -7 -59 -20 -61 -17 -3 -18 9 -18 143 0 134 1
146 18 143 13 -2 18 -15 20 -56z m192 -87 c0 -138 -1 -145 -20 -145 -19 0 -20
7 -20 145 0 138 1 145 20 145 19 0 20 -7 20 -145z m89 116 c11 -16 31 -51 43
-77 l23 -49 3 78 c3 69 5 77 22 77 19 0 20 -8 20 -146 0 -130 -2 -145 -17
-142 -9 2 -30 36 -52 86 -19 45 -39 82 -43 82 -4 0 -8 -39 -8 -86 0 -76 -2
-85 -17 -82 -16 3 -18 19 -21 133 -1 71 0 135 2 142 8 21 23 15 45 -16z m255
18 c40 -19 59 -71 54 -151 -3 -65 -6 -73 -37 -100 -27 -24 -40 -29 -74 -26
l-42 3 -3 134 c-2 101 1 136 10 143 19 11 63 10 92 -3z m216 -19 c0 -28 -2
-30 -40 -30 -36 0 -40 -2 -40 -25 0 -22 4 -25 35 -25 32 0 35 -2 35 -30 0 -28
-3 -30 -35 -30 -32 0 -35 -2 -35 -30 0 -29 2 -30 46 -30 44 0 45 -1 42 -27 -3
-27 -6 -28 -65 -31 l-63 -3 0 146 0 145 60 0 60 0 0 -30z"/>
<path d="M970 2030 l0 -390 405 0 405 0 -2 388 -3 387 -402 3 -403 2 0 -390z
m603 195 c20 -42 37 -80 37 -86 0 -7 -52 -95 -116 -196 -94 -148 -119 -182
-129 -171 -16 17 -214 333 -222 354 -3 9 11 51 33 95 l38 79 161 0 161 0 37
-75z"/>
<path d="M1210 2210 l-20 -40 44 0 c37 0 45 3 50 23 12 46 8 57 -24 57 -24 0
-33 -7 -50 -40z"/>
<path d="M1325 2238 c-2 -7 -5 -25 -8 -40 -4 -28 -4 -28 54 -28 56 0 59 1 59
24 0 47 -10 56 -56 56 -27 0 -46 -5 -49 -12z"/>
<path d="M1460 2226 c0 -47 10 -56 56 -56 l44 0 -20 40 c-17 33 -26 40 -50 40
-25 0 -30 -4 -30 -24z"/>
<path d="M1200 2111 c0 -13 112 -192 118 -187 2 3 -6 48 -18 100 l-22 96 -39
0 c-21 0 -39 -4 -39 -9z"/>
<path d="M1320 2104 c0 -22 41 -196 50 -213 6 -12 60 177 60 214 0 12 -12 15
-55 15 -44 0 -55 -3 -55 -16z"/>
<path d="M1447 2018 c-14 -57 -24 -104 -23 -106 4 -4 112 166 121 191 6 14 1
17 -33 17 l-40 0 -25 -102z"/>
<path d="M970 1525 l0 -65 403 2 402 3 3 63 3 62 -406 0 -405 0 0 -65z m465 0
c0 -18 -8 -20 -62 -23 -56 -3 -63 -1 -63 16 0 29 10 33 70 30 47 -3 55 -6 55
-23z"/>
<path d="M1277 1404 c-4 -4 4 -21 16 -38 16 -23 22 -45 21 -83 l0 -53 62 0 62
0 -6 45 c-4 37 0 52 21 84 14 21 23 42 20 45 -8 8 -188 8 -196 0z"/>
<path d="M1750 960 c0 -33 3 -41 16 -38 9 2 22 11 28 21 13 20 -2 50 -28 55
-13 3 -16 -5 -16 -38z"/>
<path d="M1201 935 c-15 -54 -15 -55 14 -55 23 0 25 3 19 28 -16 66 -21 69
-33 27z"/>
<path d="M1570 535 c0 -83 0 -85 24 -85 33 0 56 35 56 85 0 50 -23 85 -56 85
-24 0 -24 -2 -24 -85z"/>
</g>
</svg>
